<svg width="277" height="296" fill="none" xmlns="http://www.w3.org/2000/svg"><path d="M71.25 39.346c-.604 0-1.094.49-1.094 1.094v7.664h-1.74a6.913 6.913 0 00-13.737 0H31.875V16.385h38.281v3.44a1.094 1.094 0 002.188 0v-4.533c0-.604-.49-1.094-1.094-1.094H30.781c-.604 0-1.093.49-1.093 1.094v1.093H17.162a4.98 4.98 0 00-4.974 4.975v1.588c0 .604.49 1.094 1.093 1.094h1.272l-.834 10.024A4.971 4.971 0 0010 38.86v9.244c0 .604.49 1.094 1.094 1.094h2.215a7.103 7.103 0 0014.164 0c.01 0 .017.005.027.005h2.188c0 .604.49 1.094 1.093 1.094h23.997a6.915 6.915 0 0013.539 0h2.933c.604 0 1.094-.49 1.094-1.094V40.44c0-.604-.49-1.094-1.094-1.094zM20.39 53.573a4.922 4.922 0 110-9.844 4.922 4.922 0 010 9.844zm9.297-6.563H27.5c-.064.007-.128.02-.19.039a7.1 7.1 0 00-13.83-.039h-1.293v-8.15a2.79 2.79 0 012.787-2.787h14.713V47.01zm0-13.125H15.928l.82-9.843h12.94v9.843zm0-12.03H14.376v-.495a2.79 2.79 0 012.787-2.787h12.526v3.281zm36.58 27.3a4.718 4.718 0 01-4.719 4.453 4.726 4.726 0 01-4.647-3.92.984.984 0 00-.056-1.063 4.719 4.719 0 019.422.53z" fill="#333"/><path d="M70.156 22.948H54.844a1.094 1.094 0 000 2.187h15.312a1.094 1.094 0 100-2.187zm2.188 12.032H48.28a1.094 1.094 0 000 2.187h24.063a1.094 1.094 0 000-2.188zm-2.188-6.563H58.125a1.094 1.094 0 000 2.187h12.031a1.094 1.094 0 100-2.187zm4.375-3.282h2.188a1.094 1.094 0 000-2.187H74.53a1.094 1.094 0 000 2.187zm3.282 9.845h-2.188a1.094 1.094 0 000 2.187h2.188a1.094 1.094 0 000-2.188zm1.093-6.563h-4.375a1.094 1.094 0 000 2.187h4.375a1.094 1.094 0 100-2.187z" fill="#333"/><path d="M5.628 95.28c.928 0 1.717.33 2.367.992.662.661.993 1.45.993 2.368a3.25 3.25 0 01-.992 2.384c-.651.651-1.44.976-2.369.976h-4.16V90.8h6.56v1.056h-5.44v3.424h3.04zm0 5.664c.618 0 1.146-.224 1.583-.672a2.25 2.25 0 00.656-1.632 2.23 2.23 0 00-.655-1.616 2.109 2.109 0 00-1.584-.688h-3.04v4.608h3.04zm8.735-7.136c1.184 0 2.139.421 2.864 1.264.736.832 1.104 1.819 1.104 2.96 0 .117-.01.283-.032.496h-7.024c.107.81.448 1.456 1.024 1.936.587.469 1.306.704 2.16.704.608 0 1.13-.123 1.568-.368a2.58 2.58 0 001.008-.992l.928.544a3.805 3.805 0 01-1.44 1.344c-.608.331-1.301.496-2.08.496-1.259 0-2.283-.395-3.072-1.184-.79-.789-1.184-1.792-1.184-3.008 0-1.195.39-2.192 1.168-2.992.778-.8 1.781-1.2 3.008-1.2zm0 1.024c-.832 0-1.53.25-2.096.752-.555.49-.885 1.13-.992 1.92h5.968c-.107-.843-.432-1.499-.976-1.968a2.825 2.825 0 00-1.904-.704zm9.376 7.36c-1.206 0-2.208-.4-3.008-1.2-.8-.811-1.2-1.808-1.2-2.992s.4-2.176 1.2-2.976c.8-.81 1.802-1.216 3.008-1.216.789 0 1.498.192 2.128.576.629.373 1.088.88 1.376 1.52l-.864.496a2.432 2.432 0 00-1.04-1.136 2.997 2.997 0 00-1.6-.432c-.886 0-1.632.31-2.24.928-.608.608-.912 1.355-.912 2.24 0 .885.304 1.637.912 2.256.608.608 1.354.912 2.24.912a3.09 3.09 0 001.6-.416 3.097 3.097 0 001.104-1.152l.88.512a3.695 3.695 0 01-1.456 1.52 4.15 4.15 0 01-2.128.56zM35.559 94v8h-1.056v-6.976h-4.608V102h-1.056v-8h6.72zm8.793 0v8h-1.056v-6.976H39.68v3.568c0 1.333-.256 2.251-.768 2.752-.502.501-1.195.72-2.08.656v-.992c.608.064 1.056-.08 1.344-.432.298-.352.448-1.013.448-1.984V94h5.728zm9.117 0h1.056v8h-1.056v-1.568c-.736 1.173-1.814 1.76-3.232 1.76-1.142 0-2.118-.405-2.928-1.216-.8-.811-1.2-1.803-1.2-2.976s.4-2.165 1.2-2.976c.81-.81 1.786-1.216 2.928-1.216 1.418 0 2.496.587 3.232 1.76V94zm-5.392 6.256c.608.608 1.354.912 2.24.912.885 0 1.632-.304 2.24-.912.608-.619.912-1.37.912-2.256 0-.885-.304-1.632-.912-2.24-.608-.619-1.355-.928-2.24-.928-.886 0-1.632.31-2.24.928-.608.608-.912 1.355-.912 2.24 0 .885.304 1.637.912 2.256zM62.52 94v1.024h-2.832V102h-1.056v-6.976H55.8V94h6.72zm6.95 0h1.056v8h-1.055v-3.488h-4.608V102h-1.057v-8h1.056v3.488h4.609V94zm10.17 0h1.056v8H79.64v-1.568c-.736 1.173-1.814 1.76-3.232 1.76-1.142 0-2.118-.405-2.928-1.216-.8-.811-1.2-1.803-1.2-2.976s.4-2.165 1.2-2.976c.81-.81 1.786-1.216 2.928-1.216 1.418 0 2.496.587 3.232 1.76V94zm-5.392 6.256c.608.608 1.354.912 2.24.912.885 0 1.632-.304 2.24-.912.608-.619.912-1.37.912-2.256 0-.885-.304-1.632-.912-2.24-.608-.619-1.355-.928-2.24-.928-.886 0-1.632.31-2.24.928-.608.608-.912 1.355-.912 2.24 0 .885.304 1.637.912 2.256zM88.693 94v8h-1.056v-3.072H86.26L83.796 102h-1.344l2.529-3.104c-.64-.096-1.168-.363-1.584-.8-.416-.437-.625-.976-.625-1.616 0-.725.256-1.317.768-1.776.523-.47 1.158-.704 1.904-.704h3.248zm-3.248 3.936h2.192v-2.912h-2.192a1.74 1.74 0 00-1.152.4c-.31.267-.465.619-.465 1.056 0 .437.155.79.465 1.056.32.267.703.4 1.151.4zm-67.449 27.04h1.12v3.168H18.06V126h-6.528v2.144h-1.056v-3.168h.976c.544-.715.816-1.723.816-3.024V118h5.728v6.976zm-5.264 0h4.208v-5.952h-3.616v2.928c0 1.227-.197 2.235-.592 3.024zm14.373.016c-.81.8-1.802 1.2-2.976 1.2-1.173 0-2.17-.4-2.992-1.2-.81-.811-1.216-1.808-1.216-2.992s.406-2.176 1.216-2.976c.822-.811 1.819-1.216 2.992-1.216 1.174 0 2.166.405 2.976 1.216.822.8 1.232 1.792 1.232 2.976s-.41 2.181-1.232 2.992zm-5.216-.736c.608.608 1.355.912 2.24.912.886 0 1.632-.304 2.24-.912.608-.619.912-1.371.912-2.256 0-.885-.304-1.632-.912-2.24-.608-.619-1.354-.928-2.24-.928-.885 0-1.632.309-2.24.928-.608.608-.912 1.355-.912 2.24 0 .885.304 1.637.912 2.256zm11.943 1.936c-1.205 0-2.208-.4-3.008-1.2-.8-.811-1.2-1.808-1.2-2.992s.4-2.176 1.2-2.976c.8-.811 1.803-1.216 3.008-1.216.79 0 1.499.192 2.128.576.63.373 1.088.88 1.376 1.52l-.864.496a2.431 2.431 0 00-1.04-1.136 2.997 2.997 0 00-1.6-.432c-.885 0-1.632.309-2.24.928-.608.608-.912 1.355-.912 2.24 0 .885.304 1.637.912 2.256.608.608 1.355.912 2.24.912.598 0 1.131-.139 1.6-.416.47-.288.838-.672 1.104-1.152l.88.512a3.695 3.695 0 01-1.456 1.52 4.15 4.15 0 01-2.128.56zM44.536 118v1.024h-2.832V126h-1.056v-6.976h-2.832V118h6.72zm7.855 0h1.056v8H52.39v-1.568c-.736 1.173-1.814 1.76-3.232 1.76-1.142 0-2.118-.405-2.928-1.216-.8-.811-1.2-1.803-1.2-2.976s.4-2.165 1.2-2.976c.81-.811 1.786-1.216 2.928-1.216 1.418 0 2.496.587 3.232 1.76V118zm-5.392 6.256c.608.608 1.354.912 2.24.912.885 0 1.632-.304 2.24-.912.608-.619.912-1.371.912-2.256 0-.885-.304-1.632-.912-2.24-.608-.619-1.355-.928-2.24-.928-.886 0-1.632.309-2.24.928-.608.608-.912 1.355-.912 2.24 0 .885.304 1.637.912 2.256zm13.771-2.368c.875.32 1.313.944 1.313 1.872 0 .651-.22 1.189-.657 1.616-.426.416-1.045.624-1.855.624h-3.889v-8h3.569c.778 0 1.38.203 1.808.608.426.395.64.907.64 1.536 0 .8-.31 1.381-.928 1.744zm-1.52-2.864h-2.51v2.432h2.512c.928 0 1.392-.416 1.392-1.248 0-.373-.123-.661-.368-.864-.235-.213-.576-.32-1.024-.32zm.32 5.952c.47 0 .827-.112 1.072-.336.256-.224.384-.539.384-.944 0-.373-.128-.667-.384-.88-.245-.224-.602-.336-1.072-.336h-2.83v2.496h2.832zM70.148 126h-1.409l-4-3.856V126h-1.056v-8h1.056v3.536L68.547 118h1.44l-4.127 3.84 4.288 4.16zm7.525-8h1.056v8h-1.056v-1.568c-.736 1.173-1.813 1.76-3.232 1.76-1.141 0-2.117-.405-2.928-1.216-.8-.811-1.2-1.803-1.2-2.976s.4-2.165 1.2-2.976c.81-.811 1.787-1.216 2.928-1.216 1.419 0 2.496.587 3.232 1.76V118zm-5.392 6.256c.608.608 1.355.912 2.24.912.885 0 1.632-.304 2.24-.912.608-.619.912-1.371.912-2.256 0-.885-.304-1.632-.912-2.24-.608-.619-1.355-.928-2.24-.928-.885 0-1.632.309-2.24.928-.608.608-.912 1.355-.912 2.24 0 .885.304 1.637.912 2.256z" fill="#000"/><path d="M56.744 203.94L46.9 189.722a1.088 1.088 0 00-.9-.472 1.096 1.096 0 00-.9.472l-9.843 14.218a1.097 1.097 0 00-.138.968l2.801 8.405h-.67a1.094 1.094 0 00-1.094 1.093v3.282a1.093 1.093 0 001.094 1.093h1.094v12.032a1.093 1.093 0 001.094 1.093h13.125a1.094 1.094 0 001.093-1.093v-12.032h1.094a1.094 1.094 0 001.094-1.093v-3.282a1.093 1.093 0 00-1.094-1.093h-.67l2.802-8.405a1.09 1.09 0 00-.138-.968zM46 202.375a1.095 1.095 0 110 2.19 1.095 1.095 0 010-2.19zm5.469 27.344H40.53v-10.938h10.94v10.938zm2.187-13.125H38.344V215.5h15.312v1.094zm-1.882-3.281H40.227l-2.86-8.577 7.54-10.891v6.343c0 .061.006.122.016.183a3.28 3.28 0 001.077 6.38 3.28 3.28 0 002.824-4.952 3.276 3.276 0 00-1.746-1.428c.01-.061.015-.122.016-.183v-6.343l7.54 10.891-2.86 8.577z" fill="#333"/><path d="M78.813 176.125h-4.376a1.094 1.094 0 00-1.093 1.094v1.103a1.251 1.251 0 00-.137-.01H49.281v-1.093a1.095 1.095 0 00-1.093-1.094h-1.094v-5.469h1.093a1.094 1.094 0 001.094-1.094v-4.374a1.093 1.093 0 00-1.093-1.094h-4.376a1.094 1.094 0 00-1.093 1.094v4.374a1.093 1.093 0 001.093 1.094h1.094v5.469h-1.093a1.094 1.094 0 00-1.094 1.094v1.093H18.656v-1.093a1.095 1.095 0 00-1.093-1.094h-4.375a1.094 1.094 0 00-1.094 1.094v4.375a1.093 1.093 0 001.094 1.094h4.374a1.095 1.095 0 001.094-1.094V180.5H36.74a17.112 17.112 0 00-3.827 3.466c-2.804 3.4-4.412 7.718-4.412 11.846h-1.094a1.095 1.095 0 00-1.093 1.094v4.375a1.095 1.095 0 001.093 1.094h4.375a1.094 1.094 0 001.094-1.094v-4.375a1.092 1.092 0 00-1.094-1.094h-1.093c0-8.11 6.24-14.507 12.03-15.241v1.023a1.093 1.093 0 001.094 1.094h4.376a1.095 1.095 0 001.093-1.094v-1.027c2.962.351 5.804 2.126 8.098 5.086 2.233 2.878 3.65 6.605 3.895 10.159H60.22a1.095 1.095 0 00-1.094 1.094v4.375a1.095 1.095 0 001.094 1.094h4.375a1.094 1.094 0 001.094-1.094v-4.375a1.092 1.092 0 00-1.094-1.094h-1.128c-.24-4.061-1.797-8.199-4.357-11.5a17.268 17.268 0 00-4.02-3.812h18.118c.046 0 .091-.004.137-.01v1.104a1.093 1.093 0 001.094 1.094h4.374a1.095 1.095 0 001.094-1.094v-4.375a1.095 1.095 0 00-1.094-1.094zM16.468 180.5H14.28v-2.188h2.188v2.188zm14.218 19.688H28.5V198h2.188v2.188zm14.22-33.907h2.187v2.188h-2.188v-2.188zm2.187 14.219h-2.188v-2.188h2.188v2.188zM61.312 198H63.5v2.188h-2.188V198zm16.407-17.5H75.53v-2.188h2.188v2.188z" fill="#333"/><path d="M5.628 258.28a3.2 3.2 0 012.367.992c.662.661.993 1.451.993 2.368a3.25 3.25 0 01-.992 2.384c-.651.651-1.44.976-2.369.976h-4.16v-11.2h6.56v1.056h-5.44v3.424h3.04zm0 5.664c.618 0 1.146-.224 1.583-.672a2.25 2.25 0 00.656-1.632c0-.629-.218-1.168-.655-1.616a2.108 2.108 0 00-1.584-.688h-3.04v4.608h3.04zm8.735-7.136c1.184 0 2.139.421 2.864 1.264.736.832 1.104 1.819 1.104 2.96 0 .117-.01.283-.032.496h-7.024c.107.811.448 1.456 1.024 1.936.587.469 1.306.704 2.16.704.608 0 1.13-.123 1.568-.368a2.58 2.58 0 001.008-.992l.928.544a3.805 3.805 0 01-1.44 1.344c-.608.331-1.301.496-2.08.496-1.259 0-2.283-.395-3.072-1.184-.79-.789-1.184-1.792-1.184-3.008 0-1.195.39-2.192 1.168-2.992.778-.8 1.781-1.2 3.008-1.2zm0 1.024c-.832 0-1.53.251-2.096.752-.555.491-.885 1.131-.992 1.92h5.968c-.107-.843-.432-1.499-.976-1.968a2.826 2.826 0 00-1.904-.704zm9.376 7.36c-1.206 0-2.208-.4-3.008-1.2-.8-.811-1.2-1.808-1.2-2.992s.4-2.176 1.2-2.976c.8-.811 1.802-1.216 3.008-1.216.789 0 1.498.192 2.128.576.629.373 1.088.88 1.376 1.52l-.864.496a2.43 2.43 0 00-1.04-1.136 2.997 2.997 0 00-1.6-.432c-.886 0-1.632.309-2.24.928-.608.608-.912 1.355-.912 2.24 0 .885.304 1.637.912 2.256.608.608 1.354.912 2.24.912a3.09 3.09 0 001.6-.416 3.097 3.097 0 001.104-1.152l.88.512a3.695 3.695 0 01-1.456 1.52 4.15 4.15 0 01-2.128.56zM35.559 257v8h-1.056v-6.976h-4.608V265h-1.056v-8h6.72zm8.793 0v8h-1.056v-6.976H39.68v3.568c0 1.333-.256 2.251-.768 2.752-.502.501-1.195.72-2.08.656v-.992c.608.064 1.056-.08 1.344-.432.298-.352.448-1.013.448-1.984V257h5.728zm9.117 0h1.056v8h-1.056v-1.568c-.736 1.173-1.814 1.76-3.232 1.76-1.142 0-2.118-.405-2.928-1.216-.8-.811-1.2-1.803-1.2-2.976s.4-2.165 1.2-2.976c.81-.811 1.786-1.216 2.928-1.216 1.418 0 2.496.587 3.232 1.76V257zm-5.392 6.256c.608.608 1.354.912 2.24.912.885 0 1.632-.304 2.24-.912.608-.619.912-1.371.912-2.256 0-.885-.304-1.632-.912-2.24-.608-.619-1.355-.928-2.24-.928-.886 0-1.632.309-2.24.928-.608.608-.912 1.355-.912 2.24 0 .885.304 1.637.912 2.256zM62.52 257v1.024h-2.832V265h-1.056v-6.976H55.8V257h6.72zm6.95 0h1.056v8h-1.055v-3.488h-4.608V265h-1.057v-8h1.056v3.488h4.609V257zm10.17 0h1.056v8H79.64v-1.568c-.736 1.173-1.814 1.76-3.232 1.76-1.142 0-2.118-.405-2.928-1.216-.8-.811-1.2-1.803-1.2-2.976s.4-2.165 1.2-2.976c.81-.811 1.786-1.216 2.928-1.216 1.418 0 2.496.587 3.232 1.76V257zm-5.392 6.256c.608.608 1.354.912 2.24.912.885 0 1.632-.304 2.24-.912.608-.619.912-1.371.912-2.256 0-.885-.304-1.632-.912-2.24-.608-.619-1.355-.928-2.24-.928-.886 0-1.632.309-2.24.928-.608.608-.912 1.355-.912 2.24 0 .885.304 1.637.912 2.256zM88.693 257v8h-1.056v-3.072H86.26L83.796 265h-1.344l2.529-3.104c-.64-.096-1.168-.363-1.584-.8-.416-.437-.625-.976-.625-1.616 0-.725.256-1.317.768-1.776.523-.469 1.158-.704 1.904-.704h3.248zm-3.248 3.936h2.192v-2.912h-2.192a1.74 1.74 0 00-1.152.4c-.31.267-.465.619-.465 1.056 0 .437.155.789.465 1.056.32.267.703.4 1.151.4zM15.363 281v8h-1.056v-6.976H9.7V289H8.643v-8h6.72zm6.522-.192c1.14 0 2.112.405 2.912 1.216.81.811 1.216 1.803 1.216 2.976s-.406 2.165-1.216 2.976c-.8.811-1.771 1.216-2.912 1.216-1.42 0-2.496-.587-3.232-1.76v4.768h-1.056V281h1.056v1.568c.736-1.173 1.813-1.76 3.232-1.76zm-2.32 6.448c.608.608 1.354.912 2.24.912.885 0 1.632-.304 2.24-.912.608-.619.912-1.371.912-2.256 0-.885-.304-1.632-.912-2.24-.608-.619-1.355-.928-2.24-.928-.886 0-1.632.309-2.24.928-.608.608-.912 1.355-.912 2.24 0 .885.304 1.637.912 2.256zM33.592 281h.896v8h-1.056v-6.16L28.664 289h-.896v-8h1.056v6.16l4.768-6.16zm10.97 0v8h-1.056v-6.384l-2.8 4.544h-.128l-2.8-4.544V289h-1.056v-8h1.216l2.704 4.384L43.346 281h1.216zm5.934-.192c1.184 0 2.138.421 2.864 1.264.736.832 1.104 1.819 1.104 2.96 0 .117-.011.283-.032.496h-7.024c.106.811.448 1.456 1.024 1.936.586.469 1.306.704 2.16.704.608 0 1.13-.123 1.568-.368a2.58 2.58 0 001.008-.992l.928.544a3.805 3.805 0 01-1.44 1.344c-.608.331-1.302.496-2.08.496-1.259 0-2.283-.395-3.072-1.184-.79-.789-1.184-1.792-1.184-3.008 0-1.195.389-2.192 1.168-2.992.778-.8 1.781-1.2 3.008-1.2zm0 1.024c-.832 0-1.531.251-2.096.752-.555.491-.886 1.131-.992 1.92h5.968c-.107-.843-.432-1.499-.976-1.968a2.826 2.826 0 00-1.904-.704zm9.935-1.024c1.142 0 2.112.405 2.912 1.216.811.811 1.216 1.803 1.216 2.976s-.405 2.165-1.216 2.976c-.8.811-1.77 1.216-2.912 1.216-1.418 0-2.496-.587-3.232-1.76v4.768h-1.056V281H57.2v1.568c.736-1.173 1.814-1.76 3.232-1.76zm-2.32 6.448c.608.608 1.355.912 2.24.912.886 0 1.632-.304 2.24-.912.608-.619.912-1.371.912-2.256 0-.885-.304-1.632-.912-2.24-.608-.619-1.354-.928-2.24-.928-.885 0-1.632.309-2.24.928-.608.608-.912 1.355-.912 2.24 0 .885.304 1.637.912 2.256zM72.78 289h-1.408l-4-3.856V289h-1.056v-8h1.056v3.536L71.18 281h1.44l-4.128 3.84L72.78 289zm7.526-8h1.056v8h-1.056v-1.568c-.736 1.173-1.814 1.76-3.232 1.76-1.142 0-2.118-.405-2.928-1.216-.8-.811-1.2-1.803-1.2-2.976s.4-2.165 1.2-2.976c.81-.811 1.786-1.216 2.928-1.216 1.418 0 2.496.587 3.232 1.76V281zm-5.392 6.256c.608.608 1.354.912 2.24.912.885 0 1.632-.304 2.24-.912.608-.619.912-1.371.912-2.256 0-.885-.304-1.632-.912-2.24-.608-.619-1.355-.928-2.24-.928-.886 0-1.632.309-2.24.928-.608.608-.912 1.355-.912 2.24 0 .885.304 1.637.912 2.256z" fill="#000"/><path d="M229.312 2.188h-8.75V1.093a1.093 1.093 0 10-2.187 0v1.093h-8.75V1.095a1.094 1.094 0 00-2.187 0v1.093h-8.75V1.095a1.094 1.094 0 00-2.188 0v1.093h-8.75c-.604 0-1.094.49-1.094 1.094v65.625c0 .604.49 1.094 1.094 1.094h41.562c.605 0 1.094-.49 1.094-1.094V3.281c0-.604-.489-1.094-1.094-1.094zm-1.093 65.624h-39.375V4.376h7.656v3.281a1.094 1.094 0 002.188 0V4.375h8.75v3.281a1.093 1.093 0 102.187 0V4.375h8.75v3.281a1.094 1.094 0 002.187 0V4.375h7.657v63.438z" fill="#333"/><path d="M204.156 12.031h-10.937c-.604 0-1.094.49-1.094 1.094v10.938c0 .604.49 1.093 1.094 1.093h10.937c.604 0 1.094-.49 1.094-1.093V13.124c0-.604-.49-1.094-1.094-1.094zm-1.094 10.938h-8.75v-8.75h8.75v8.75zm1.094 4.375h-10.937c-.604 0-1.094.49-1.094 1.093v10.938c0 .604.49 1.094 1.094 1.094h10.937c.604 0 1.094-.49 1.094-1.094V28.437c0-.604-.49-1.093-1.094-1.093zm-1.094 10.937h-8.75v-8.75h8.75v8.75zm1.094 4.375h-10.937c-.604 0-1.094.49-1.094 1.094v10.938c0 .603.49 1.093 1.094 1.093h10.937c.604 0 1.094-.49 1.094-1.093V43.75c0-.604-.49-1.094-1.094-1.094zm-1.094 10.938h-8.75v-8.75h8.75v8.75zm5.469-39.375c0 .604.49 1.094 1.094 1.094h13.125a1.094 1.094 0 100-2.188h-13.125c-.604 0-1.094.49-1.094 1.094zm14.219 7.656h-13.125a1.094 1.094 0 000 2.188h13.125a1.094 1.094 0 100-2.188zm-13.125-2.187h5.469a1.094 1.094 0 100-2.188h-5.469a1.094 1.094 0 000 2.188zm10.937 0a1.093 1.093 0 100-2.188h-2.187a1.094 1.094 0 000 2.188h2.187zm2.188 8.75h-13.125a1.094 1.094 0 100 2.187h13.125a1.094 1.094 0 000-2.188zm0 8.75h-13.125a1.094 1.094 0 100 2.187h13.125a1.094 1.094 0 000-2.188zM209.625 35h5.469a1.094 1.094 0 000-2.188h-5.469a1.094 1.094 0 100 2.188zm10.937 0a1.093 1.093 0 100-2.188h-2.187a1.094 1.094 0 100 2.188h2.187zm2.188 8.75h-13.125a1.094 1.094 0 000 2.188h13.125a1.094 1.094 0 100-2.188zm0 8.75h-13.125a1.094 1.094 0 000 2.188h13.125a1.094 1.094 0 100-2.188zm-13.125-2.187h5.469a1.094 1.094 0 100-2.188h-5.469a1.094 1.094 0 000 2.188zm10.937 0a1.093 1.093 0 100-2.188h-2.187a1.094 1.094 0 000 2.188h2.187zm16.954-36.094a3.828 3.828 0 00-3.828 3.828v32.266a.775.775 0 00.019.095 1.182 1.182 0 000 .084l1.094 6.562c.087.526.541.912 1.074.915h3.281c.535 0 .991-.387 1.079-.915l1.093-6.562a.592.592 0 000-.084c.007-.032.012-.064.016-.096V18.047a3.828 3.828 0 00-3.828-3.828zm.714 41.562h-1.429l-.728-4.375h2.885l-.728 4.375zm.926-6.562h-3.281v-26.25h3.281v26.25zm0-28.438h-3.281v-2.734a1.641 1.641 0 013.281 0v2.734z" fill="#333"/><path d="M158.543 102v-9.12l-6.24 9.12h-.96V90.8h1.12v9.12l6.24-9.12h.96V102h-1.12zm9.179-8h1.056v8h-1.056v-3.488h-4.608V102h-1.056v-8h1.056v3.488h4.608V94zm10.009 6.976h1.12v3.168h-1.056V102h-6.528v2.144h-1.056v-3.168h.976c.544-.715.816-1.723.816-3.024V94h5.728v6.976zm-5.264 0h4.208v-5.952h-3.616v2.928c0 1.227-.198 2.235-.592 3.024zM186.272 94h.896v8h-1.056v-6.16l-4.768 6.16h-.896v-8h1.056v6.16l4.768-6.16zm8.217 3.888c.875.32 1.312.944 1.312 1.872 0 .651-.218 1.189-.656 1.616-.426.416-1.045.624-1.856.624h-3.888v-8h3.568c.779 0 1.382.203 1.808.608.427.395.64.907.64 1.536 0 .8-.309 1.381-.928 1.744zm-1.52-2.864h-2.512v2.432h2.512c.928 0 1.392-.416 1.392-1.248 0-.373-.122-.661-.368-.864-.234-.213-.576-.32-1.024-.32zm.32 5.952c.47 0 .827-.112 1.072-.336.256-.224.384-.539.384-.944 0-.373-.128-.667-.384-.88-.245-.224-.602-.336-1.072-.336h-2.832v2.496h2.832zM203.225 94h.896v8h-1.056v-6.16l-4.768 6.16h-.896v-8h1.056v6.16l4.768-6.16zm9.849 6.976h1.12v3.168h-1.056V102h-6.528v2.144h-1.056v-3.168h.976c.544-.715.816-1.723.816-3.024V94h5.728v6.976zm-5.264 0h4.208v-5.952h-3.616v2.928c0 1.227-.197 2.235-.592 3.024zM221.239 94h1.12l-3.424 8.736c-.309.789-.752 1.408-1.328 1.856-.565.459-1.2.661-1.904.608v-.992c.96.107 1.691-.448 2.192-1.664l.208-.496L214.519 94h1.12l3.008 6.704L221.239 94zm8.964 0h1.056v8h-1.056v-1.568c-.736 1.173-1.813 1.76-3.232 1.76-1.141 0-2.117-.405-2.928-1.216-.8-.811-1.2-1.803-1.2-2.976s.4-2.165 1.2-2.976c.811-.81 1.787-1.216 2.928-1.216 1.419 0 2.496.587 3.232 1.76V94zm-5.392 6.256c.608.608 1.355.912 2.24.912.885 0 1.632-.304 2.24-.912.608-.619.912-1.37.912-2.256 0-.885-.304-1.632-.912-2.24-.608-.619-1.355-.928-2.24-.928-.885 0-1.632.31-2.24.928-.608.608-.912 1.355-.912 2.24 0 .885.304 1.637.912 2.256zM240.055 94v8h-1.056v-6.976h-3.616v3.568c0 1.333-.256 2.251-.768 2.752-.501.501-1.195.72-2.08.656v-.992c.608.064 1.056-.08 1.344-.432.299-.352.448-1.013.448-1.984V94h5.728zm5.485 3.04c.747 0 1.376.235 1.888.704.523.459.784 1.05.784 1.776 0 .725-.261 1.323-.784 1.792-.512.459-1.141.688-1.888.688h-3.248v-8h1.056v3.04h2.192zm0 3.936c.448 0 .827-.133 1.136-.4.32-.267.48-.619.48-1.056 0-.437-.16-.79-.48-1.056-.309-.267-.688-.4-1.136-.4h-2.192v2.912h2.192zM255.472 94h1.056v8h-1.056v-3.488h-4.608V102h-1.056v-8h1.056v3.488h4.608V94zm6.537 3.04c.746 0 1.376.235 1.888.704.522.459.784 1.05.784 1.776 0 .725-.262 1.323-.784 1.792-.512.459-1.142.688-1.888.688h-3.248v-8h1.056v3.04h2.192zm3.792-3.04h1.056v8h-1.056v-8zm-3.792 6.976c.448 0 .826-.133 1.136-.4.32-.267.48-.619.48-1.056 0-.437-.16-.79-.48-1.056-.31-.267-.688-.4-1.136-.4h-2.192v2.912h2.192zm8.375-8.256v-.928h4.16v.928h-4.16zm4.544 1.28h.896v8h-1.056v-6.16L270 102h-.896v-8h1.056v6.16l4.768-6.16zm-80.385 30.976h1.12v3.168h-1.056V126h-6.528v2.144h-1.056v-3.168h.976c.544-.715.816-1.723.816-3.024V118h5.728v6.976zm-5.264 0h4.208v-5.952h-3.616v2.928c0 1.227-.197 2.235-.592 3.024zM203.085 118h.896v8h-1.056v-6.16l-4.768 6.16h-.896v-8h1.056v6.16l4.768-6.16zm7.257 3.888c.928.352 1.392.992 1.392 1.92 0 .661-.262 1.227-.784 1.696-.512.459-1.248.688-2.208.688-1.611 0-2.667-.64-3.168-1.92l.896-.528c.33.949 1.088 1.424 2.272 1.424.618 0 1.093-.133 1.424-.4.341-.267.512-.608.512-1.024a1.14 1.14 0 00-.416-.912c-.278-.235-.651-.352-1.12-.352h-1.168v-1.024h.848c.458 0 .816-.112 1.072-.336.266-.235.4-.555.4-.96 0-.384-.155-.699-.464-.944-.31-.256-.726-.384-1.248-.384-1.003 0-1.67.4-2 1.2l-.88-.512c.533-1.141 1.493-1.712 2.88-1.712.842 0 1.514.224 2.016.672.501.437.752.976.752 1.616 0 .821-.336 1.419-1.008 1.792zm9.877-3.888h1.056v8h-1.056v-1.568c-.736 1.173-1.814 1.76-3.232 1.76-1.142 0-2.118-.405-2.928-1.216-.8-.811-1.2-1.803-1.2-2.976s.4-2.165 1.2-2.976c.81-.811 1.786-1.216 2.928-1.216 1.418 0 2.496.587 3.232 1.76V118zm-5.392 6.256c.608.608 1.354.912 2.24.912.885 0 1.632-.304 2.24-.912.608-.619.912-1.371.912-2.256 0-.885-.304-1.632-.912-2.24-.608-.619-1.355-.928-2.24-.928-.886 0-1.632.309-2.24.928-.608.608-.912 1.355-.912 2.24 0 .885.304 1.637.912 2.256zm9.964-7.536v-.928h4.16v.928h-4.16zm4.544 1.28h.896v8h-1.056v-6.16l-4.768 6.16h-.896v-8h1.056v6.16l4.768-6.16zm8.793 0h1.056v8h-1.056v-3.488h-4.608V126h-1.056v-8h1.056v3.488h4.608V118z" fill="#000"/><g clip-path="url(#clip0)" fill="#333"><path d="M204.364 206.713a3.77 3.77 0 00-3.254-1.877h-4.952v-2.97c2.335-.456 4.17-2.437 4.359-4.881a1.026 1.026 0 00-2.044-.158 3.364 3.364 0 01-3.34 3.087 3.353 3.353 0 01-3.35-3.35 3.353 3.353 0 015.024-2.902 1.025 1.025 0 101.027-1.775 5.386 5.386 0 00-1.676-.624v-2.991a3.423 3.423 0 002.393-3.26c0-1.53-1.01-2.828-2.399-3.263l.021-2.131a.725.725 0 01.588-.702c3.691-.77 6.37-4.082 6.37-7.876 0-4.355-3.649-8.037-7.968-8.04h-.004c-3.114 0-6.013 1.975-7.387 5.032a1.026 1.026 0 001.871.841c1.043-2.322 3.208-3.822 5.516-3.822h.003c2.858.002 5.918 2.409 5.918 5.989 0 2.828-1.992 5.296-4.738 5.869a2.762 2.762 0 00-2.22 2.689l-.021 2.155a3.425 3.425 0 00-2.386 3.259 3.423 3.423 0 002.393 3.26v2.991a5.408 5.408 0 00-4.375 5.301 5.409 5.409 0 004.375 5.302v2.97h-4.952a3.77 3.77 0 00-3.254 1.877l-5.972 10.322a3.77 3.77 0 000 3.766l5.972 10.322a3.77 3.77 0 003.254 1.877h11.954a3.77 3.77 0 003.254-1.877l5.972-10.322a3.77 3.77 0 000-3.766l-5.972-10.322zm-9.231-23.068a1.368 1.368 0 010 2.734 1.368 1.368 0 010-2.734zm13.428 36.129l-5.972 10.322a1.715 1.715 0 01-1.479.853h-11.954a1.716 1.716 0 01-1.479-.853l-5.972-10.322a1.716 1.716 0 010-1.712l5.972-10.322a1.716 1.716 0 011.479-.853h11.954c.608 0 1.175.327 1.479.853l5.972 10.322a1.716 1.716 0 010 1.712z"/><path d="M200.244 212.447a2.4 2.4 0 00-2.072-1.197h-6.078a2.4 2.4 0 00-2.072 1.197l-3.039 5.263a2.4 2.4 0 000 2.393l.48.832a1.026 1.026 0 001.776-1.026l-.48-.832a.34.34 0 010-.341l3.039-5.264a.344.344 0 01.296-.171h6.077c.122 0 .236.066.296.171l3.039 5.264a.34.34 0 010 .341l-3.039 5.264a.342.342 0 01-.296.171h-6.077c-.257.022-.376-.331-.487-.501a1.025 1.025 0 10-1.776 1.025l.191.33a2.4 2.4 0 002.072 1.197h6.077a2.4 2.4 0 002.072-1.197l3.039-5.263a2.4 2.4 0 000-2.393l-3.038-5.263zm47.826 4.588l-1.739-3.005a1.025 1.025 0 10-1.775 1.027l1.739 3.005a1.716 1.716 0 010 1.712l-5.972 10.322a1.713 1.713 0 01-1.479.853h-11.953a1.713 1.713 0 01-1.479-.853l-5.972-10.322a1.711 1.711 0 010-1.712l5.971-10.322a1.716 1.716 0 011.48-.853h11.953c.608 0 1.175.327 1.479.853l1.86 3.215a1.025 1.025 0 101.775-1.027l-1.86-3.215a3.77 3.77 0 00-3.254-1.877h-4.951v-2.97a5.409 5.409 0 004.375-5.302 5.409 5.409 0 00-4.375-5.301v-2.991a3.423 3.423 0 002.392-3.26c0-1.53-1.01-2.828-2.398-3.263l.02-2.131a.725.725 0 01.588-.702c3.691-.77 6.37-4.082 6.37-7.876 0-.304-.017-.611-.051-.911a1.026 1.026 0 00-2.038.234c.026.223.039.451.039.677 0 2.828-1.993 5.296-4.739 5.869a2.762 2.762 0 00-2.22 2.689l-.021 2.155a3.426 3.426 0 00-2.386 3.259 3.424 3.424 0 002.393 3.26v2.991a5.409 5.409 0 00-4.375 5.301 5.409 5.409 0 004.375 5.302v2.97h-4.951a3.77 3.77 0 00-3.255 1.877l-5.972 10.322a3.774 3.774 0 000 3.766l5.972 10.322a3.77 3.77 0 003.255 1.877h11.953a3.773 3.773 0 003.255-1.877l5.971-10.322a3.77 3.77 0 000-3.766zm-15.203-33.39a1.37 1.37 0 011.368 1.367 1.37 1.37 0 01-1.368 1.367 1.369 1.369 0 01-1.367-1.367c0-.754.614-1.367 1.367-1.367zm-3.349 12.919a3.352 3.352 0 013.349-3.349 3.353 3.353 0 013.35 3.349 3.353 3.353 0 01-3.35 3.35 3.353 3.353 0 01-3.349-3.35zm-3.497-27.176c.505.23 1.123.007 1.356-.515 1.044-2.322 3.209-3.822 5.516-3.822h.003c1.465.001 2.948.619 4.069 1.696a1.025 1.025 0 001.421-1.478c-1.499-1.441-3.499-2.268-5.488-2.269h-.005c-3.113 0-6.013 1.975-7.387 5.032a1.027 1.027 0 00.515 1.356z"/><path d="M235.906 211.25h-6.078a2.4 2.4 0 00-2.072 1.197l-3.039 5.263a2.4 2.4 0 000 2.393l3.039 5.263a2.4 2.4 0 002.072 1.197h6.078a2.4 2.4 0 002.072-1.197l3.039-5.263a2.4 2.4 0 000-2.393l-3.039-5.263a2.4 2.4 0 00-2.072-1.197zm3.335 7.827l-3.039 5.264a.344.344 0 01-.296.171h-6.078a.344.344 0 01-.296-.171l-3.039-5.264a.34.34 0 010-.341l3.039-5.264a.344.344 0 01.296-.171h6.078c.122 0 .235.066.296.171l3.039 5.264c.06.105.06.236 0 .341z"/></g><path d="M185.334 265v-.992c.778.107 1.36-.133 1.744-.72.394-.597.592-1.685.592-3.264V253.8h7.264V265h-1.12v-10.144h-5.024v5.2c0 1.013-.08 1.861-.24 2.544-.16.683-.4 1.205-.72 1.568a2.37 2.37 0 01-1.072.72c-.395.117-.87.155-1.424.112zm17.829-8h.896v8h-1.056v-6.16l-4.768 6.16h-.896v-8h1.056v6.16l4.768-6.16zm8.313 0h1.056v8h-1.056v-3.04c-.619.32-1.381.48-2.288.48-1.045 0-1.845-.24-2.4-.72-.544-.491-.816-1.211-.816-2.16V257h1.056v2.56c0 .672.176 1.157.528 1.456.352.288.885.432 1.6.432.832 0 1.605-.155 2.32-.464V257zm8.964 0h1.056v8h-1.056v-3.488h-4.608V265h-1.056v-8h1.056v3.488h4.608V257zm6.537 3.04c.747 0 1.376.235 1.888.704.523.459.784 1.051.784 1.776 0 .725-.261 1.323-.784 1.792-.512.459-1.141.688-1.888.688h-3.248v-8h1.056v3.04h2.192zm3.792-3.04h1.056v8h-1.056v-8zm-3.792 6.976c.448 0 .827-.133 1.136-.4.32-.267.48-.619.48-1.056 0-.437-.16-.789-.48-1.056-.309-.267-.688-.4-1.136-.4h-2.192v2.912h2.192zm8.376-8.256v-.928h4.16v.928h-4.16zm4.544 1.28h.896v8h-1.056v-6.16l-4.768 6.16h-.896v-8h1.056v6.16l4.768-6.16zm-45.659 24v8h-1.056v-6.976h-4.608V289h-1.056v-8h6.72zm8.938 6.992c-.811.8-1.803 1.2-2.976 1.2-1.174 0-2.171-.4-2.992-1.2-.811-.811-1.216-1.808-1.216-2.992s.405-2.176 1.216-2.976c.821-.811 1.818-1.216 2.992-1.216 1.173 0 2.165.405 2.976 1.216.821.8 1.232 1.792 1.232 2.976s-.411 2.181-1.232 2.992zm-5.216-.736c.608.608 1.354.912 2.24.912.885 0 1.632-.304 2.24-.912.608-.619.912-1.371.912-2.256 0-.885-.304-1.632-.912-2.24-.608-.619-1.355-.928-2.24-.928-.886 0-1.632.309-2.24.928-.608.608-.912 1.355-.912 2.24 0 .885.304 1.637.912 2.256zm14.622.72h1.12v3.168h-1.056V289h-6.528v2.144h-1.056v-3.168h.976c.544-.715.816-1.723.816-3.024V281h5.728v6.976zm-5.264 0h4.208v-5.952h-3.616v2.928c0 1.227-.197 2.235-.592 3.024zM222.02 289h-1.264l-2.496-3.296-2.496 3.296H214.5l3.136-4.144-2.928-3.856h1.264l2.288 3.024 2.288-3.024h1.264l-2.912 3.856 3.12 4.144zm7.577-1.008c-.81.8-1.802 1.2-2.976 1.2-1.173 0-2.17-.4-2.992-1.2-.81-.811-1.216-1.808-1.216-2.992s.406-2.176 1.216-2.976c.822-.811 1.819-1.216 2.992-1.216 1.174 0 2.166.405 2.976 1.216.822.8 1.232 1.792 1.232 2.976s-.41 2.181-1.232 2.992zm-5.216-.736c.608.608 1.355.912 2.24.912.886 0 1.632-.304 2.24-.912.608-.619.912-1.371.912-2.256 0-.885-.304-1.632-.912-2.24-.608-.619-1.354-.928-2.24-.928-.885 0-1.632.309-2.24.928-.608.608-.912 1.355-.912 2.24 0 .885.304 1.637.912 2.256zm14.623.72h1.12v3.168h-1.056V289h-6.528v2.144h-1.056v-3.168h.976c.544-.715.816-1.723.816-3.024V281h5.728v6.976zm-5.264 0h4.208v-5.952h-3.616v2.928c0 1.227-.197 2.235-.592 3.024z" fill="#000"/><defs><clipPath id="clip0"><path fill="#fff" transform="translate(179 163)" d="M0 0h70v70H0z"/></clipPath></defs></svg>